<?xml version="1.0" encoding="iso-8859-1"?>
<!-- Generator: Adobe Illustrator 19.0.0, SVG Export Plug-In . SVG Version: 6.00 Build 0)  -->
<svg version="1.1" id="Capa_1" xmlns="http://www.w3.org/2000/svg" xmlns:xlink="http://www.w3.org/1999/xlink" x="0px" y="0px"
	 viewBox="0 0 512 512" style="enable-background:new 0 0 512 512;" xml:space="preserve">
<path style="fill:#303C42;" d="M426.667,213.333h-21.333v-74.667c0-5.896-4.771-10.667-10.667-10.667H384v-10.667
	c0-2.833-1.125-5.542-3.125-7.542l-85.333-85.333c-2-2-4.708-3.125-7.542-3.125H128c-23.521,0-42.667,19.135-42.667,42.667v64
	H74.667C68.771,128,64,132.771,64,138.667v74.667H42.667C19.146,213.333,0,232.469,0,256v106.667
	c0,23.531,19.146,42.667,42.667,42.667h384c23.521,0,42.667-19.135,42.667-42.667V256
	C469.333,232.469,450.188,213.333,426.667,213.333z"/>
<path style="fill:#E6E6E6;" d="M298.667,57.75l48.917,48.917H320c-11.771,0-21.333-9.573-21.333-21.333V57.75z"/>
<path style="opacity:0.1;enable-background:new    ;" d="M320,96c-11.771,0-21.333-9.573-21.333-21.333v10.667
	c0,11.76,9.563,21.333,21.333,21.333h27.583L336.917,96H320z"/>
<path style="fill:#FFFFFF;" d="M106.667,64c0-11.76,9.563-21.333,21.333-21.333h149.333v42.667C277.333,108.865,296.479,128,320,128
	h42.667v85.333h-256V64z"/>
<path style="fill:#455A64;" d="M448,362.667c0,11.76-9.563,21.333-21.333,21.333h-384c-11.771,0-21.333-9.573-21.333-21.333V256
	c0-11.76,9.563-21.333,21.333-21.333h32H96h277.333h21.333h32C438.438,234.667,448,244.24,448,256V362.667z"/>
<path style="opacity:0.2;fill:#FFFFFF;enable-background:new    ;" d="M32.889,374.221V267.555c0-11.76,9.563-21.333,21.333-21.333
	h32h21.333h277.333h21.333h32c2.883,0,5.621,0.605,8.132,1.646c-3.206-7.733-10.802-13.201-19.688-13.201h-32h-21.333H96H74.667h-32
	c-11.771,0-21.333,9.573-21.333,21.333v106.667c0,8.88,5.465,16.482,13.202,19.688C33.495,379.842,32.889,377.104,32.889,374.221z"
	/>
<path style="fill:#7CB342;" d="M64,256c-11.771,0-21.333,9.573-21.333,21.333S52.229,298.667,64,298.667s21.333-9.573,21.333-21.333
	S75.771,256,64,256z"/>
<path style="opacity:0.1;enable-background:new    ;" d="M72.706,257.954c1.21,2.674,1.961,5.591,1.961,8.712
	c0,11.76-9.563,21.333-21.333,21.333c-3.12,0-6.034-0.747-8.706-1.954c3.349,7.404,10.725,12.621,19.372,12.621
	c11.771,0,21.333-9.573,21.333-21.333C85.333,268.689,80.117,261.302,72.706,257.954z"/>
<path style="fill:#303C42;" d="M373.333,362.667H74.667C68.771,362.667,64,357.896,64,352c0-5.896,4.771-10.667,10.667-10.667
	h298.667c5.896,0,10.667,4.771,10.667,10.667C384,357.896,379.229,362.667,373.333,362.667z"/>
<linearGradient id="SVGID_1_" gradientUnits="userSpaceOnUse" x1="-32.3241" y1="641.6955" x2="-28.9986" y2="638.371" gradientTransform="matrix(21.3333 0 0 -21.3333 996.3334 13791.667)">
	<stop  offset="0" style="stop-color:#000000;stop-opacity:0.1"/>
	<stop  offset="1" style="stop-color:#000000;stop-opacity:0"/>
</linearGradient>
<path style="fill:url(#SVGID_1_);" d="M362.667,188.121V128H320c-10.848,0-20.654-4.195-28.191-10.889l-0.074,0.079L362.667,188.121
	z"/>
<circle style="fill:#303C42;" cx="394.667" cy="373.333" r="117.333"/>
<circle style="fill:#7CB342;" cx="394.667" cy="373.333" r="96"/>
<g>
	<path style="fill:#303C42;" d="M437.333,384H352c-5.896,0-10.667-4.771-10.667-10.667s4.771-10.667,10.667-10.667h85.333
		c5.896,0,10.667,4.771,10.667,10.667S443.229,384,437.333,384z"/>
	<path style="fill:#303C42;" d="M394.667,426.667c-5.896,0-10.667-4.771-10.667-10.667v-85.333c0-5.896,4.771-10.667,10.667-10.667
		c5.896,0,10.667,4.771,10.667,10.667V416C405.333,421.896,400.563,426.667,394.667,426.667z"/>
</g>
<linearGradient id="SVGID_2_" gradientUnits="userSpaceOnUse" x1="-44.9139" y1="639.1865" x2="-22.2958" y2="628.6394" gradientTransform="matrix(21.3333 0 0 -21.3333 996.3334 13791.667)">
	<stop  offset="0" style="stop-color:#FFFFFF;stop-opacity:0.2"/>
	<stop  offset="1" style="stop-color:#FFFFFF;stop-opacity:0"/>
</linearGradient>
<path style="fill:url(#SVGID_2_);" d="M469.333,282.898V256c0-23.531-19.146-42.667-42.667-42.667h-21.333v-74.667
	c0-5.896-4.771-10.667-10.667-10.667H384v-10.667c0-2.833-1.125-5.542-3.125-7.542l-85.333-85.333c-2-2-4.708-3.125-7.542-3.125H128
	c-23.521,0-42.667,19.135-42.667,42.667v64H74.667C68.771,128,64,132.771,64,138.667v74.667H42.667C19.146,213.333,0,232.469,0,256
	v106.667c0,23.531,19.146,42.667,42.667,42.667h239.216c13.979,49.173,59.199,85.333,112.784,85.333
	c64.688,0,117.333-52.635,117.333-117.333C512,336.979,495.374,304.436,469.333,282.898z"/>
<g>
</g>
<g>
</g>
<g>
</g>
<g>
</g>
<g>
</g>
<g>
</g>
<g>
</g>
<g>
</g>
<g>
</g>
<g>
</g>
<g>
</g>
<g>
</g>
<g>
</g>
<g>
</g>
<g>
</g>
</svg>
